# xmcd
#
# Track frame offsets: 
#        150
#        8789
#        22161
#        37652
#        54010
#        72218
#        104343
#        120171
#        129329
#        138430
#        151012
#
# Disc length: 2535 seconds
#
# Revision: 0
# Processed by: cddbd v1.5.2PL0 Copyright (c) Steve Scherf et al.
# Submitted via: ExactAudioCopy v0.99pb5
#
DISCID=7909e50b
DTITLE=B.B. King - Intrepid Air And Space Museum
DYEAR=1998
DGENRE=Blues
TTITLE0=Intro To The King
TTITLE1=Let The Good Times Roll
TTITLE2=Why I Sing The Blues
TTITLE3=Intro To I'll Survive
TTITLE4=I'll Survive
TTITLE5=Now You Know
TTITLE6=The Thrill Is Gone
TTITLE7=Intro To Please Accept My Love
TTITLE8=Please Accept My Love
TTITLE9=How Blue Can You Get
TTITLE10=Rock Me Baby
EXTD=
EXTT0=
EXTT1=
EXTT2=
EXTT3=
EXTT4=
EXTT5=
EXTT6=
EXTT7=
EXTT8=
EXTT9=
EXTT10=
PLAYORDER=
